<?xml version="1.0" standalone="no"?>
<!DOCTYPE svg PUBLIC "-//W3C//DTD SVG 20010904//EN"
 "http://www.w3.org/TR/2001/REC-SVG-20010904/DTD/svg10.dtd">
<svg version="1.0" xmlns="http://www.w3.org/2000/svg"
 width="200px" height="100px" viewBox="0 0 504.000000 81.000000"
 preserveAspectRatio="xMidYMid meet">
<metadata>
Created by potrace 1.16, written by Peter Selinger 2001-2019
</metadata>
<g transform="translate(0.000000,81.000000) scale(0.100000,-0.100000)"
fill="#000000" stroke="none">
<path d="M369 691 c-22 -18 -24 -28 -27 -125 -4 -106 -4 -106 22 -106 25 0 25
0 28 98 3 97 3 97 238 97 235 0 235 0 238 -141 2 -109 -1 -144 -11 -152 -9 -7
-80 -13 -197 -14 -184 -3 -184 -3 -203 -52 -10 -27 -16 -54 -14 -60 3 -8 75
-9 238 -6 234 5 234 5 232 50 -1 25 -2 50 -2 55 12 331 12 323 -15 350 -25 25
-25 25 -264 25 -221 0 -242 -1 -263 -19z"/>
<path d="M2820 594 c0 -75 0 -76 -22 -69 -13 4 -43 10 -68 12 -53 5 -100 -21
-137 -76 -32 -47 -32 -135 0 -181 40 -60 70 -75 151 -75 63 0 77 3 108 27 61
47 68 74 68 267 0 171 0 171 -50 171 -50 0 -50 0 -50 -76z m-15 -177 c51 -73
-39 -161 -108 -107 -31 25 -37 72 -12 107 26 36 95 36 120 0z"/>
<path d="M1192 563 c3 -48 3 -48 58 -48 55 0 55 0 58 -157 3 -158 3 -158 57
-158 54 0 54 0 57 158 3 157 3 157 58 157 55 0 55 0 58 48 3 47 3 47 -173 47
-176 0 -176 0 -173 -47z"/>
<path d="M3425 408 c82 -203 82 -203 134 -203 53 0 53 0 132 195 43 107 79
198 79 203 0 4 -24 7 -54 7 -54 0 -54 0 -101 -135 -26 -74 -51 -135 -55 -135
-4 0 -29 61 -56 135 -48 135 -48 135 -105 135 -56 0 -56 0 26 -202z"/>
<path d="M1670 518 c-70 -37 -90 -86 -90 -216 0 -103 0 -103 51 -100 50 3 50
3 52 101 2 91 4 100 26 118 13 10 36 19 51 19 30 0 40 20 37 70 -2 22 -7 25
-42 28 -27 2 -55 -5 -85 -20z"/>
<path d="M1900 518 c-62 -32 -83 -66 -88 -141 -3 -52 0 -67 20 -96 12 -19 35
-43 50 -54 31 -23 113 -33 183 -23 46 7 46 7 43 53 -3 46 -3 46 -80 44 -45 -1
-79 2 -83 8 -4 7 9 11 37 11 52 0 122 30 137 58 6 12 11 35 11 52 0 46 -16 69
-63 91 -56 25 -113 24 -167 -3z m127 -95 c6 -16 -39 -27 -73 -19 -22 6 -24 9
-13 22 15 18 80 15 86 -3z"/>
<path d="M2270 518 c-69 -36 -90 -85 -90 -215 0 -104 0 -104 52 -101 53 3 53
3 49 84 -3 97 15 153 51 155 37 2 52 -2 71 -18 14 -13 17 -34 17 -120 0 -103
0 -103 56 -103 57 0 57 0 51 110 -4 88 -10 118 -28 150 -43 75 -144 101 -229
58z"/>
<path d="M2980 435 c0 -119 10 -154 59 -200 28 -26 40 -30 89 -30 31 0 64 2
72 5 11 4 14 -1 12 -15 -6 -37 -32 -47 -107 -42 -71 5 -71 5 -69 -40 1 -25 6
-49 12 -55 6 -6 44 -9 89 -7 68 3 85 8 115 31 62 47 68 73 68 277 0 181 0 181
-49 181 -49 0 -49 0 -53 -105 -3 -112 -10 -128 -60 -140 -21 -5 -33 -1 -52 19
-24 24 -26 31 -26 126 0 100 0 100 -50 100 -50 0 -50 0 -50 -105z"/>
<path d="M3853 519 c-58 -29 -88 -79 -88 -149 0 -108 70 -170 191 -170 94 0
109 9 109 60 0 43 0 43 -82 41 -49 -1 -84 2 -88 8 -4 7 8 11 32 11 99 0 170
53 159 118 -14 89 -133 131 -233 81z m122 -99 c0 -10 -12 -16 -34 -18 -39 -4
-64 13 -41 29 23 14 75 7 75 -11z"/>
<path d="M4235 521 c-78 -35 -93 -70 -96 -213 -2 -103 -2 -103 50 -106 51 -3
51 -3 51 97 0 117 13 141 75 141 35 0 35 0 35 50 0 50 0 50 -37 50 -21 0 -56
-9 -78 -19z"/>
<path d="M4440 522 c-61 -30 -78 -100 -37 -148 16 -19 43 -31 90 -43 36 -9 66
-20 67 -26 0 -10 -100 -13 -155 -5 -29 5 -29 4 -29 -40 1 -53 10 -57 121 -59
119 -2 173 31 173 106 0 58 -27 83 -112 103 -103 24 -54 47 60 27 42 -7 42 -7
42 42 0 48 0 48 -46 55 -79 10 -138 7 -174 -12z"/>
<path d="M4793 520 c-58 -30 -88 -80 -88 -150 0 -108 70 -170 191 -170 94 0
109 9 109 60 0 43 0 43 -82 41 -49 -1 -84 2 -88 8 -4 7 9 11 37 12 64 0 108
20 142 62 30 38 30 38 11 74 -30 54 -66 76 -132 80 -45 3 -68 -1 -100 -17z
m122 -100 c0 -10 -12 -16 -34 -18 -39 -4 -64 13 -41 29 23 14 75 7 75 -11z"/>
<path d="M465 465 c-15 -35 -15 -35 -215 -35 -129 0 -200 -4 -200 -10 0 -17
72 -224 83 -237 7 -10 51 -13 159 -13 127 0 150 -2 155 -16 11 -28 -18 -34
-174 -34 -129 0 -153 -2 -153 -15 0 -8 7 -15 15 -15 11 0 14 -7 9 -24 -8 -33
34 -63 65 -46 21 11 25 20 22 53 -2 14 6 17 54 17 52 0 56 -1 50 -20 -9 -28
11 -50 46 -50 31 0 49 22 42 51 -4 13 2 22 20 28 14 6 31 20 38 32 10 20 8 26
-15 46 -15 13 -36 23 -47 23 -10 0 -19 6 -19 13 0 6 22 66 48 132 48 120 48
120 102 120 42 0 55 3 55 15 0 11 -15 16 -63 18 -63 3 -63 3 -77 -33z m-335
-70 c13 -16 6 -35 -15 -35 -16 0 -38 34 -28 44 11 10 30 7 43 -9z m78 -13 c3
-20 0 -23 -20 -20 -15 2 -24 11 -26 26 -3 20 0 23 20 20 15 -2 24 -11 26 -26z
m77 3 c0 -13 -8 -21 -22 -23 -19 -3 -23 1 -23 23 0 22 4 26 23 23 14 -2 22
-10 22 -23z m83 3 c-4 -31 -58 -40 -58 -10 0 25 8 32 37 32 20 0 24 -5 21 -22z
m72 13 c0 -23 -14 -41 -31 -41 -21 0 -25 20 -7 38 14 14 38 16 38 3z m-291
-83 c12 -31 -4 -47 -25 -26 -17 17 -13 48 6 48 6 0 15 -10 19 -22z m59 13 c16
-10 13 -43 -5 -48 -14 -5 -37 33 -28 47 7 12 16 12 33 1z m67 -21 c0 -13 -6
-25 -12 -27 -16 -6 -27 21 -19 43 9 23 31 11 31 -16z m71 15 c6 -16 -12 -45
-28 -45 -15 0 -21 30 -8 45 16 19 29 19 36 0z m62 -7 c-2 -13 -11 -24 -20 -26
-21 -4 -24 18 -6 36 19 19 30 14 26 -10z m-239 -80 c9 -25 6 -38 -10 -38 -11
0 -29 41 -22 53 8 14 24 7 32 -15z m59 -2 c5 -26 -16 -45 -28 -26 -5 8 -10 23
-10 33 0 24 34 18 38 -7z m43 11 c-1 -4 -1 -14 -1 -22 0 -8 -4 -15 -10 -15 -5
0 -10 12 -10 26 0 14 5 24 11 22 6 -2 10 -7 10 -11z m59 -6 c0 -23 -25 -47
-35 -31 -10 16 4 50 21 50 8 0 14 -8 14 -19z m60 6 c0 -7 -6 -22 -14 -33 -19
-25 -37 -8 -25 24 9 24 39 31 39 9z m-184 -178 c10 -17 -13 -36 -27 -22 -12
12 -4 33 11 33 5 0 12 -5 16 -11z m190 0 c10 -17 -13 -36 -27 -22 -12 12 -4
33 11 33 5 0 12 -5 16 -11z"/>
</g>
</svg>
